<?xml version="1.0" encoding="utf-8"?>
<!-- Generator: Adobe Illustrator 23.0.2, SVG Export Plug-In . SVG Version: 6.00 Build 0)  -->
<svg version="1.1" id="Layer_1" xmlns="http://www.w3.org/2000/svg" xmlns:xlink="http://www.w3.org/1999/xlink" x="0px" y="0px"
	 viewBox="0 0 288 108.26" style="enable-background:new 0 0 288 108.26;" xml:space="preserve">
<style type="text/css">
	.st0{fill:#6D6E71;}
	.st1{font-family:'Gotham-Medium';}
	.st2{font-size:37.9393px;}
	.st3{letter-spacing:2;}
	.st4{fill:#F47B20;}
</style>
<text transform="matrix(1 0 0 1 72.2056 85.9344)" class="st0 st1 st2 st3">TOSIE</text>
<g>
	<g>
		<path class="st4" d="M136.65,50.03c8.16-5.52,14.81-12.29,19.67-20.66c-1.78-0.12-3.62-0.23-5.46-0.36
			c-0.58-0.04-1.21,0.01-1.73-0.21c-0.46-0.2-0.78-0.71-1.17-1.08c0.41-0.28,0.8-0.77,1.22-0.79c1.63-0.1,3.26-0.07,4.9-0.07
			c4.71-0.01,4.65-0.05,7.65-3.79c1.84-2.3,3.86-4.45,5.83-6.63c0.43-0.48,0.98-1.1,1.69-0.56c0.7,0.53,0.92,1.25,0.51,2.17
			c-1.34,2.96-3.4,5.38-5.6,7.7c-0.18,0.19-0.33,0.4-0.56,0.67c1.56,0.34,3.01,0.67,4.47,0.96c1.11,0.22,1.51,0.92,1.59,2.12
			c-0.45,0-0.81,0.02-1.18-0.01c-2.08-0.19-4.16-0.46-6.25-0.56c-0.58-0.03-1.33,0.29-1.75,0.71c-4.73,4.78-8.69,10.07-10.54,16.66
			c-0.33,1.17-0.37,2.45-0.34,3.67c0.03,1.39,0.77,1.82,2.02,1.16c1.85-0.97,3.75-1.92,5.41-3.17c3.07-2.29,6.08-4.69,8.93-7.24
			c1.69-1.52,3.01-3.43,4.51-5.16c0.2-0.23,0.41-0.46,0.64-0.66c0.41-0.34,0.78-1.07,1.42-0.41c0.51,0.54,0.97,1.21,0.43,1.98
			c-0.64,0.92-1.38,1.78-2.03,2.7c-2.17,3.12-4.34,6.24-6.44,9.41c-0.45,0.67-0.57,1.56-0.84,2.35c0.12,0.11,0.25,0.22,0.37,0.33
			c0.67-0.44,1.4-0.81,1.99-1.34c2.66-2.38,5.16-4.95,7.94-7.18c3.33-2.67,6.86-5.12,11.2-5.97c1.15-0.22,2.39-0.63,3.25,0.47
			c0.87,1.11,0.97,2.43,0.26,3.73c-0.09,0.16-0.15,0.34-0.36,0.82c0.58-0.29,0.89-0.45,1.22-0.61c1.67-0.79,3.29-1.7,5.03-2.3
			c1.05-0.36,2.27-0.36,3.4-0.3c1,0.05,1.46,1.93,0.71,2.91c-1.31,1.73-2.74,3.37-4.02,5.12c-1.05,1.44-2.04,2.93-2.9,4.48
			c-0.73,1.31-0.18,2.08,1.34,2.06c2.68-0.03,5.08-1.14,7.6-1.86c2.25-0.64,2.99-2.36,3.92-4.08c2.65-4.9,6.01-9.22,10.55-12.53
			c1.02-0.75,2.14-1.27,3.47-1c0.43,0.65,1.01,1.25,1.26,1.96c0.51,1.44-0.05,2.83-0.9,3.91c-1.62,2.07-3.32,4.12-5.22,5.92
			c-2.31,2.18-4.93,4-7.83,5.37c-0.8,0.38-1.56,2.35-1.08,3.06c0.28,0.42,1.03,0.81,1.52,0.75c1.46-0.16,2.95-0.37,4.32-0.87
			c3.93-1.44,7.82-2.99,11.69-4.6c2.44-1.02,4.79-2.26,7.22-3.34c1.27-0.56,2.63-0.93,3.91-1.48c0.66-0.29,1.21-0.83,1.86-1.17
			c1.68-0.9,3.32-1.94,5.1-2.52c0.57-0.19,1.1-0.43,1.64-0.68c0.92-0.41,1.86-0.75,2.81-1.1c1.77-0.65,3.51-1.43,5.32-1.88
			c2.28-0.56,4.62-0.9,6.95-1.22c0.63-0.09,1.31,0.2,2.02,0.17c-0.18-0.06-0.36-0.13-0.67-0.24c0.23-0.03,0.32-0.05,0.42-0.05
			c2.52-0.02,5.02,0.07,7.34,1.26c2.72,1.39,4.32,3.6,4.84,6.58c0.23,1.32,0.36,2.67,0.46,4.01c0.02,0.31-0.29,0.65-0.44,0.98
			c-0.31-0.17-0.82-0.28-0.91-0.53c-0.28-0.83-0.55-1.71-0.58-2.57c-0.13-3.93-2.13-6.42-5.99-7.22c-3.58-0.74-7.14-0.36-10.65,0.42
			c-2.83,0.63-5.67,1.31-8.39,2.28c-2.43,0.86-4.73,2.11-7.07,3.24c-6.99,3.37-13.93,6.86-20.99,10.1
			c-2.55,1.17-5.33,1.95-8.08,2.58c-3.06,0.7-4.54-0.36-5.51-3.36c-0.06-0.18-0.17-0.34-0.27-0.55c-1.35,0.49-2.63,1.04-3.97,1.41
			c-1.64,0.44-3.31,0.83-4.99,1.05c-2.28,0.3-4.37-1.93-4.02-4.32c0.16-1.12,0.54-2.31,1.16-3.25c1.14-1.74,2.53-3.32,3.8-4.97
			c0.48-0.63,0.92-1.29,1.58-2.22c-2.39,0.64-4.32,1.46-6.06,2.69c-4.12,2.9-7.48,6.53-10.35,10.65c-0.37,0.53-0.68,1.26-1.53,0.9
			c-0.71-0.31-0.99-1.57-0.46-2.38c0.95-1.46,2-2.86,3-4.29c1.73-2.49,3.45-4.97,5.15-7.48c0.38-0.56,0.61-1.22,1.04-2.09
			c-2.23,0.3-4.03,0.89-5.74,1.81c-3.98,2.13-7.31,5.09-10.52,8.21c-1.59,1.54-3.21,3.06-4.87,4.52c-1.57,1.38-2.99,1.04-3.73-0.91
			c-0.28-0.74-0.38-1.58-0.43-2.38c-0.05-0.76,0.08-1.53,0.13-2.32c-2.24,1.51-4.47,3.04-6.72,4.53c-0.58,0.39-1.2,0.71-1.82,1.02
			c-2.68,1.32-4.39,0.34-5.38-2.64c-0.68-2.05-0.54-4.2,0.12-6.59c-1.14,0.95-2.02,1.69-2.91,2.42c-2.72,2.25-5.47,4.47-8.15,6.76
			c-0.51,0.44-0.9,1.14-1.12,1.79c-1.07,3.28-1.92,6.65-3.14,9.87c-0.89,2.35-2.66,4.19-4.61,5.79c-0.72,0.59-1.57,0.87-2.49,0.42
			c-1.17-0.57-2-1.47-1.97-2.8c0.02-1.02,0.25-2.06,0.55-3.05c1.07-3.61,3.07-6.61,6.01-9c1.16-0.94,2.16-2.07,3.22-3.13
			c0.21-0.21,0.5-0.48,0.52-0.74c0.18-2.19,0.31-4.38,0.45-6.57c-0.12-0.06-0.25-0.11-0.37-0.17c-0.79,0.57-1.58,1.14-2.36,1.73
			c-3.69,2.8-7.82,4.59-12.39,5.35c-0.99,0.16-1.98,0.39-2.98,0.45c-1.89,0.12-3.45-0.49-4.3-2.34c-0.21-0.45-0.5-0.87-0.81-1.41
			c-1.27,0.99-2.46,2.12-3.83,2.92c-1.89,1.1-3.83,2.27-5.91,2.85c-2.97,0.83-5.28-1.73-4.67-4.79c0.39-1.96,1.7-3.37,2.8-4.92
			c0.79-1.1,1.63-2.18,2.3-3.35c0.61-1.07,0.65-2.22-0.32-3.51c-0.41,0.86-0.84,1.57-1.09,2.34c-1.68,5.21-5.49,8.49-10.1,10.94
			c-2.06,1.1-4.32,2-6.59,2.5c-3.65,0.8-6.21-2.27-4.88-5.75c0.87-2.27,2.15-4.39,3.22-6.59c0.44-0.9,0.89-1.82,1.2-2.77
			c0.37-1.14,0.05-1.55-1.09-1.19c-1.47,0.46-2.92,1.09-4.25,1.86c-3.04,1.79-5.48,4.28-7.62,7.06c-1.4,1.82-2.76,3.66-4.14,5.49
			c-0.36,0.48-0.63,1.17-1.43,0.8c-0.76-0.36-1.17-1.44-0.87-2.19c0.11-0.27,0.25-0.54,0.22-0.95c-0.39,0.28-0.8,0.54-1.17,0.85
			c-3.13,2.58-6.46,4.84-10.25,6.37c-3.22,1.3-6.51,1.4-9.83,0.56c-2.44-0.62-4.01-3.21-3.75-5.75c0.32-3.03,1.51-5.67,3.3-8.08
			c0.3-0.4,0.55-0.84,0.7-1.41c-0.84,0.57-1.66,1.18-2.54,1.7c-4.72,2.78-9.43,5.56-14.18,8.28c-1.44,0.82-2.93,1.63-4.49,2.15
			c-3.13,1.03-6.18-1.42-5.96-4.71c0.06-0.92,0.28-1.84,0.56-2.73c0.11-0.34,0.58-0.57,0.88-0.84c0.28,0.41,0.71,0.8,0.81,1.25
			c0.1,0.46-0.14,0.98-0.2,1.48c-0.07,0.66-0.14,1.32-0.15,1.98c-0.01,1.74,0.84,2.46,2.55,1.99c1.22-0.34,2.43-0.84,3.55-1.43
			c3-1.58,5.96-3.25,8.94-4.88c1.62-0.89,3.29-1.7,4.85-2.69c1.1-0.69,2.05-1.62,3.07-2.43c0.84-0.67,1.65-1.4,2.75-1.49
			c0.33-0.3,0.63-0.67,1-0.91c1.17-0.74,2.3-1.69,3.6-2.06c1.3-0.38,2.19-1.31,3.36-1.84c1.56-0.7,3.11-0.5,4.67-0.54
			c0.96-0.02,1.95,1.53,1.7,2.78c-0.31,1.54-0.83,3.05-1.35,4.54c-0.3,0.85-0.94,0.79-1.4,0.13c-0.29-0.42-0.49-0.99-0.52-1.5
			c-0.06-0.96,0.04-1.94,0.05-2.91c0-0.37-0.07-0.73-0.11-1.1c-0.35,0.11-0.75,0.14-1.04,0.33c-3.18,2.2-6.11,4.67-8.56,7.7
			c-1.69,2.09-3.08,4.3-3.58,6.98c-0.08,0.42-0.19,0.84-0.22,1.26c-0.17,2.18,0.49,2.74,2.64,3.07c5.13,0.79,9.43-1.13,13.37-4.01
			c2.85-2.08,5.47-4.48,8.2-6.72c1.26-1.03,2.75-1.86,3.77-3.08c1.66-1.97,3.06-4.17,4.51-6.32c3.83-5.66,7.36-11.53,12.03-16.58
			c0.18-0.2,0.34-0.48,0.57-0.57c0.45-0.18,1.1-0.5,1.38-0.32c0.59,0.39,1.2,0.85,0.83,1.9c-1.2,3.45-3.43,6.25-5.44,9.2
			c-1.54,2.26-3.06,4.55-4.73,7.04c0.95-0.26,1.68-0.45,2.41-0.65c1.43-0.4,2.74-0.37,3.89,0.77c1.24,1.25,1.18,2.69,0.57,4.11
			c-0.8,1.85-1.8,3.62-2.65,5.45c-0.65,1.41-1.29,2.83-1.75,4.3c-0.42,1.33,0.07,1.91,1.44,1.7c1.33-0.2,2.73-0.47,3.9-1.1
			c2.86-1.54,5.83-3.01,8.31-5.06c1.72-1.41,2.82-3.66,3.97-5.66c0.82-1.43,1.33-3.06,1.83-4.64c0.64-2.03,1.1-4.11,1.69-6.15
			c0.15-0.52,0.12-1.57,1-1.18c0.59,0.27,1.14,1.14,1.27,1.82c0.13,0.7-0.22,1.53-0.48,2.25c-0.76,2.07-0.8,4.13,0.08,6.14
			c1.04,2.39,0.41,4.48-0.99,6.46c-0.83,1.18-1.79,2.27-2.54,3.49c-0.6,0.98-1.1,2.06-1.41,3.16c-0.31,1.06,0.24,1.59,1.25,1.2
			c1.76-0.68,3.57-1.39,5.14-2.41c2.76-1.78,5.49-3.69,7.48-6.35c1.55-2.08,2.87-4.34,4.19-6.58c0.44-0.74,0.96-0.99,1.57-0.61
			c0.65,0.41,0.93,1.11,0.45,1.91c-1.06,1.77-2.17,3.51-3.13,5.33c-0.8,1.5-1.52,3.06-2.09,4.67c-0.45,1.26-0.08,1.7,1.28,1.82
			c0.69,0.06,1.4,0.01,2.08-0.12c4.48-0.84,8.69-2.38,12.42-5.06c1.13-0.81,2.18-1.72,3.3-2.55c0.9-0.67,1.06-1.47,0.85-2.56
			c-0.74-3.8,0.03-7.2,3.02-9.87c0.77-0.68,1.53-1.57,2.73-1.17c0.9,0.3,1.95,2.32,1.66,3.5c-0.37,1.49-0.9,2.98-1.58,4.36
			c-0.88,1.77-1.98,3.42-2.96,5.14c-0.18,0.32-0.38,0.71-0.36,1.06C136.29,45.68,136.47,47.76,136.65,50.03z M132.95,57.01
			c-0.14-0.08-0.29-0.15-0.43-0.23c-1.15,1.24-2.41,2.4-3.42,3.74c-1.59,2.1-3.11,4.28-3.56,6.96c-0.07,0.41,0.13,0.87,0.21,1.31
			c0.39-0.17,0.86-0.26,1.16-0.54c1.96-1.81,3.49-3.93,4.39-6.47C131.85,60.2,132.4,58.61,132.95,57.01z M218.22,35.86
			c-4.7,2.66-7.68,6.75-10.71,10.97C210.29,46.97,217.95,39.12,218.22,35.86z M135.65,39.54c1.88-2.23,3-4.58,3.51-7.32
			C136.94,33.13,134.92,37.21,135.65,39.54z"/>
		<path class="st4" d="M120.27,25.9c-0.72-0.16-1.51-0.1-1.73-0.43c-0.34-0.51-0.31-1.27-0.37-1.94c-0.01-0.07,0.49-0.32,0.66-0.25
			C119.81,23.66,120.17,24.48,120.27,25.9z"/>
		<path class="st4" d="M176.56,28.26c0.47,0.16,0.88,0.18,0.99,0.37c0.29,0.49,0.45,1.06,0.62,1.61c0.01,0.04-0.55,0.34-0.6,0.29
			c-0.39-0.42-0.75-0.87-1.05-1.36C176.42,29.02,176.53,28.73,176.56,28.26z"/>
	</g>
</g>
</svg>
